<svg id="Layer_1" data-name="Layer 1" xmlns="http://www.w3.org/2000/svg" viewBox="0 0 839.34 173.69"><defs><style>.cls-1{fill:#231f20;}</style></defs><title>daylight1a</title><path class="cls-1" d="M123.64,18.58h26.93c37.05,0,38.85,25.39,38.85,49.17V136c0,26.09-3.71,52-40.72,52H123.64Zm12.43,158.36h11.49c22.84,0,29.13-12,29.13-37.36V65.51c0-22.34-4-35.78-28.75-35.78H136.07Z" transform="translate(-123.64 -16.47)"/><path class="cls-1" d="M263.18,127.92l-9.59,60.13H241.07L269.28,18.58h17.93l29.44,169.47H303.58l-10.13-60.13Zm28.46-11.43c-7.35-43.21-12-73.08-13.35-86.95h-.59c-.55,12.5-7.29,51.9-12.68,86.95Z" transform="translate(-123.64 -16.47)"/><path class="cls-1" d="M379.16,188.05v-65.5a11.09,11.09,0,0,0-.59-3.74L347.71,18.58h13.57c9.54,32.82,21.32,72.81,24.29,86.34h.25c3.13-13.82,15.3-55.48,24.12-86.34h13.15l-31,100.63a15.36,15.36,0,0,0-.51,4.08v64.76Z" transform="translate(-123.64 -16.47)"/><path class="cls-1" d="M473.31,18.58h12.44V176.74h42.62l-1.86,11.31h-53.2Z" transform="translate(-123.64 -16.47)"/><path class="cls-1" d="M590.38,18.58V188.05H577.94V18.58Z" transform="translate(-123.64 -16.47)"/><path class="cls-1" d="M716.53,188.05H706.39c-.34-2.62-.85-12-.89-16-4,13.46-13.43,18.12-24.55,18.12-22.39,0-29.87-16.77-29.87-42.75V59.05c0-27.87,11.51-42.58,33.47-42.58,25.36,0,31.86,17.22,31.86,41.07V61H704V57.73c0-13.87-1.48-29.86-19.63-29.86-13.36,0-20.53,8-20.53,31.26v87.78c0,18.86,4.66,32,19,32,18.45,0,21-17.7,21-42.24V108.07H682.3V96.92h34.23Z" transform="translate(-123.64 -16.47)"/><path class="cls-1" d="M778.79,18.58h12.44V91.15h40.19V18.58h12.44V188.05H831.42V102.58H791.23v85.47H778.79Z" transform="translate(-123.64 -16.47)"/><path class="cls-1" d="M923.35,30.06H895.78V18.58H963V30.06H935.79v158H923.35Z" transform="translate(-123.64 -16.47)"/></svg>