<?xml version="1.0" encoding="utf-8"?>
<!-- Generator: Adobe Illustrator 22.1.0, SVG Export Plug-In . SVG Version: 6.00 Build 0)  -->
<svg version="1.1" xmlns="http://www.w3.org/2000/svg" xmlns:xlink="http://www.w3.org/1999/xlink" x="0px" y="0px"
	 viewBox="0 0 1050 200" style="enable-background:new 0 0 1050 200;" xml:space="preserve">
<style type="text/css">
	.st0{display:none;}
	.st1{display:inline;}
</style>
<g id="Layer_1" class="st0">
	<g class="st1">
		<g>
			<path d="M23.6,18.6h12.4v72.6h40.2V18.6h12.4v169.5H76.3v-85.5H36.1v85.5H23.6V18.6z"/>
			<path d="M178.2,57.9v89.7c0,27.9-11.2,42.5-34.1,42.5c-25.4,0-33-17.4-33-42.5V58.1c0-26.2,10.9-41.6,33.9-41.6
				C169.6,16.5,178.2,35.2,178.2,57.9z M123.8,58.3v89.8c0,22.5,8.2,30.7,20.9,30.7c13.3,0,20.7-8.2,20.7-31.8V58.4
				c0-21.1-7.6-30.6-20.9-30.6C130.4,27.9,123.8,37,123.8,58.3z"/>
			<path d="M212.4,18.6v133.7c0,15.1,5.5,26.4,20,26.4c14.8,0,19.9-9.7,19.9-26.1V18.6H265v133.1c0,25.8-11.5,38.4-32.9,38.4
				c-21.1,0-32.2-12.2-32.2-37.8V18.6H212.4z"/>
			<path d="M293.7,141.8v9.4c0,18.3,6.7,27.9,19.9,27.9c13.5,0,19.8-8.2,19.8-32c0-21-4.7-30.1-22.3-43.7
				c-18.1-14-26.9-22.1-26.9-47c0-20.9,6.2-40.1,30-39.9c21.1,0.2,29,13.2,29,36.9v7h-12.4v-6.7c0-15.6-3.3-26.1-16.9-26.1
				c-13.8,0-17.3,12.1-17.3,26.8c0,18.4,3.7,24.4,19.7,36.8c22.3,17.1,29.5,26.4,29.5,54.3c0,23.7-5.7,44.6-32.2,44.6
				c-24.6,0-32.4-16.5-32.4-38.8v-9.5H293.7z"/>
			<path d="M416.2,102.8h-38.5v73.8h43.3l-1.8,11.4h-53.9V18.6h53.2v11.5h-40.8v61.3h38.5V102.8z"/>
			<path d="M519.1,105.1v50.1c0,24.8-11.3,34.7-27.2,34.7c-15.7,0-26.6-9.4-26.6-33.7v-51c0-19.9,9.8-32.1,27.3-32.1
				C510.6,73,519.1,85.3,519.1,105.1z M476.5,105.2v51.3c0,14.6,5.1,23.4,15.6,23.4c9.7,0,15.8-6.4,15.8-23.5v-51.2
				c0-12.9-4.7-22.1-15.6-22.1C481.2,83,476.5,91.2,476.5,105.2z"/>
			<path d="M540.1,188.1V77.4h-13.5V66.8h13.5V46c0-13.4,4.6-27.1,22-27.1c2.4,0,5.7,0.2,7.3,0.8v11.3c-2.1-0.4-3.9-0.6-6.2-0.6
				c-9.3,0-11.3,6.9-11.3,16.9v19.6h16.2v10.7h-16.2v110.6H540.1z"/>
			<path d="M695.1,112c6.9-32.6,14.5-64.1,18.7-81.3h-0.3c-10.3,27.8-42.1,106-62.8,157.3h-12.5c1.5-43.3,4.1-128.5,5.8-157.4h-0.5
				c-3.6,19.6-11.1,57.7-17.1,86.7l-14.8,70.7H600l36-169.5h17.9c-1.2,56.1-3,127.3-4.8,147h0.3c6.6-19.1,38.4-96.2,59.6-147h18.1
				l-36,169.5h-12.2L695.1,112z"/>
			<path d="M806.1,59.8l-18.8,87.3c-5.9,27-14.6,43.1-38.3,43.1c-25.8,0-31.1-18.5-25.9-43.3L742,57.8c5.2-24.6,15.3-41.3,38.3-41.3
				C804.7,16.5,811.3,35.9,806.1,59.8z M754.3,57.6l-19.1,89.8c-4.8,22.8,0.7,32.1,15,32.1c13.2,0,20-9.8,24.9-31.9L794.1,59
				c4.6-21.8-1-31.9-15.3-31.9C765,27.2,758.3,38.7,754.3,57.6z"/>
			<path d="M820.6,188.1l7.6-169.5h12.2l-4.3,80.9c-1.4,24.3-3.8,62.2-5.4,75.4h0.3c4.1-13.7,18.3-50.5,27.2-74.3l30.8-82h12.9
				l-65.6,169.5H820.6z"/>
			<path d="M949.1,102.6h-36.9l-15.6,74.5h42.8l-3.6,10.9h-53.8l36-169.5h51l-2.4,10.9h-39.1l-13.1,62.2h37.1L949.1,102.6z"/>
			<path d="M968.4,145.2l-0.8,4.4c-3.7,21,1,30.1,15.6,30.1c12.5,0,19.5-10.8,22.7-28.4c3.6-19.8,0.6-32.1-13.5-48.4
				c-15.5-17.8-21.4-30-16.9-53.1c3.9-20.2,12.5-33.2,32-33.2c23.7,0,28.5,18.1,24.4,39.8l-0.9,5h-11.5l0.9-5.2
				c2.7-14.3,2.2-29.1-13.5-29.1c-12.2,0-17,10.1-19.6,24c-3.1,16.7,0.2,27.2,12.8,41.7c17.2,19.6,22.8,35,17.9,59.8
				c-4.1,20.8-13.5,37.7-35.9,37.7c-25.3,0-31.2-17.5-26.1-41.6l0.7-3.4H968.4z"/>
		</g>
	</g>
</g>
<g id="Layer_2">
	<g>
		<path d="M25.6,14.6h12.4v72.6h40.2V14.6h12.4v169.5H78.3V98.6H38.1v85.5H25.6V14.6z"/>
		<path d="M180.2,53.9v89.7c0,27.9-11.2,42.5-34.1,42.5c-25.4,0-33-17.4-33-42.5V54.1c0-26.2,10.9-41.6,33.9-41.6
			C171.6,12.5,180.2,31.2,180.2,53.9z M125.8,54.3v89.8c0,22.5,8.2,30.7,20.9,30.7c13.3,0,20.7-8.2,20.7-31.8V54.4
			c0-21.1-7.6-30.6-20.9-30.6C132.4,23.9,125.8,33,125.8,54.3z"/>
		<path d="M214.4,14.6v133.7c0,15.1,5.5,26.4,20,26.4c14.8,0,19.9-9.7,19.9-26.1V14.6H267v133.1c0,25.8-11.5,38.4-32.9,38.4
			c-21.1,0-32.2-12.2-32.2-37.8V14.6H214.4z"/>
		<path d="M296.7,137.8v9.4c0,18.3,6.7,27.9,19.9,27.9c13.5,0,19.8-8.2,19.8-32c0-21-4.7-30.1-22.3-43.7c-18.1-14-26.9-22.1-26.9-47
			c0-20.9,6.2-40.1,30-39.9c21.1,0.2,29,13.2,29,36.9v7h-12.4v-6.7c0-15.6-3.3-26.1-16.9-26.1c-13.8,0-17.3,12.1-17.3,26.8
			c0,18.4,3.7,24.4,19.7,36.8c22.3,17.1,29.5,26.4,29.5,54.3c0,23.7-5.7,44.6-32.2,44.6c-24.6,0-32.4-16.5-32.4-38.8v-9.5H296.7z"/>
		<path d="M420.2,98.8h-38.5v73.8H425l-1.8,11.4h-53.9V14.6h53.2v11.5h-40.8v61.3h38.5V98.8z"/>
		<path d="M523.1,101.1v50.1c0,24.8-11.3,34.7-27.2,34.7c-15.7,0-26.6-9.4-26.6-33.7v-51c0-19.9,9.8-32.1,27.3-32.1
			C514.6,69,523.1,81.3,523.1,101.1z M480.5,101.2v51.3c0,14.6,5.1,23.4,15.6,23.4c9.7,0,15.8-6.4,15.8-23.5v-51.2
			c0-12.9-4.7-22.1-15.6-22.1C485.2,79,480.5,87.2,480.5,101.2z"/>
		<path d="M544.1,184.1V73.4h-13.5V62.8h13.5V42c0-13.4,4.6-27.1,22-27.1c2.4,0,5.7,0.2,7.3,0.8v11.3c-2.1-0.4-3.9-0.6-6.2-0.6
			c-9.3,0-11.3,6.9-11.3,16.9v19.6h16.2v10.7H556v110.6H544.1z"/>
		<path d="M699.1,108c6.9-32.6,14.5-64.1,18.7-81.3h-0.3c-10.3,27.8-42.1,106-62.8,157.3h-12.5c1.5-43.3,4.1-128.5,5.8-157.4h-0.5
			c-3.6,19.6-11.1,57.7-17.1,86.7l-14.8,70.7h-11.6l36-169.5h17.9c-1.2,56.1-3,127.3-4.8,147h0.3c6.6-19.1,38.4-96.2,59.6-147h18.1
			l-36,169.5h-12.2L699.1,108z"/>
		<path d="M810.2,55.8l-18.8,87.3c-5.9,27-14.6,43.1-38.3,43.1c-25.8,0-31.1-18.5-25.9-43.3L746,53.8c5.2-24.6,15.3-41.3,38.3-41.3
			C808.8,12.5,815.3,31.9,810.2,55.8z M758.3,53.6l-19.1,89.8c-4.8,22.8,0.7,32.1,15,32.1c13.2,0,20-9.8,24.9-31.9L798.1,55
			c4.6-21.8-1-31.9-15.3-31.9C769.1,23.2,762.3,34.7,758.3,53.6z"/>
		<path d="M823.2,184.1l7.6-169.5h12.2l-4.3,80.9c-1.4,24.3-3.8,62.2-5.4,75.4h0.3c4.1-13.7,18.3-50.5,27.2-74.3l30.8-82h12.9
			l-65.6,169.5H823.2z"/>
		<path d="M951.6,98.6h-36.9l-15.6,74.5H942l-3.6,10.9h-53.8l36-169.5h51l-2.4,10.9h-39.1l-13.1,62.2h37.1L951.6,98.6z"/>
		<path d="M972,141.2l-0.8,4.4c-3.7,21,1,30.1,15.6,30.1c12.5,0,19.5-10.8,22.7-28.4c3.6-19.8,0.6-32.1-13.5-48.4
			c-15.5-17.8-21.4-30-16.9-53.1c3.9-20.2,12.5-33.2,32-33.2c23.7,0,28.5,18.1,24.4,39.8l-0.9,5H1023l0.9-5.2
			c2.7-14.3,2.2-29.1-13.5-29.1c-12.2,0-17,10.1-19.6,24c-3.1,16.7,0.2,27.2,12.8,41.7c17.2,19.6,22.8,35,17.9,59.8
			c-4.1,20.8-13.5,37.7-35.9,37.7c-25.3,0-31.2-17.5-26.1-41.6l0.7-3.4H972z"/>
	</g>
</g>
</svg>
