<?xml version="1.0" encoding="utf-8"?>
<!-- Generator: Adobe Illustrator 23.0.3, SVG Export Plug-In . SVG Version: 6.00 Build 0)  -->
<svg version="1.1" id="Layer_1" xmlns="http://www.w3.org/2000/svg" xmlns:xlink="http://www.w3.org/1999/xlink" x="0px" y="0px"
	 viewBox="0 0 792 612" style="enable-background:new 0 0 792 612;" xml:space="preserve">
<style type="text/css">
	.st0{fill:#00EB5A;}
	.st1{fill:#00D2D2;}
	.st2{fill:#B94BFF;}
	.st3{fill:#503CF0;}
	.st4{fill:#00AA8C;}
	.st5{fill:#002DCD;}
</style>
<g>
	<polygon class="st0" points="343.5,232.1 258.4,379.5 258.4,379.5 343.5,305.8 	"/>
	<polygon class="st1" points="343.5,305.8 343.5,350 371.9,340.2 371.9,281.2 	"/>
	<polygon class="st2" points="371.9,379.5 400.3,379.5 400.3,330.4 371.9,340.2 	"/>
	<polygon class="st3" points="343.5,350 343.5,379.5 371.9,379.5 371.9,340.2 	"/>
	<polygon class="st4" points="343.5,305.8 258.4,379.5 343.5,350 	"/>
	<polygon class="st5" points="343.5,350 258.4,379.5 343.5,379.5 	"/>
	<g>
		<polygon points="449.2,308.7 449.2,308.7 436.6,308.7 436.6,301.8 452.5,301.8 452.5,295 428.6,295 428.6,330.4 436.6,330.4 
			436.6,315.6 445.3,315.6 		"/>
		<path d="M456.1,297.7c0-2.2,1.7-4,4-4c2.4,0,4.2,1.8,4.2,4c0,2.3-1.8,4.1-4.2,4.1C457.8,301.8,456.1,300,456.1,297.7z
			 M456.5,304.9h7.4v25.5h-7.4V304.9z"/>
		<path d="M493,319.8h-18.3c0.7,3.1,2.8,4.9,6,4.9c2.5,0,4.4-1.2,5-3.3l6.8,2.4c-1.7,4.5-6.1,7.1-12,7.1c-8.8,0-13.1-6.8-13.1-13.2
			c0-6.3,3.8-13.2,12.7-13.2c9.2,0,13.1,6.8,13.1,12.5C493.1,318,493.1,319.2,493,319.8z M485.2,314.5c-0.3-2.6-1.9-4.5-5.2-4.5
			c-2.7,0-4.5,1.5-5.2,4.5H485.2z"/>
		<path d="M496.4,295h7.4v35.4h-7.4V295z"/>
		<path d="M507.3,317.6c0-8,4.5-13.2,11.9-13.2c3.1,0,5.5,1.1,6.9,2.8V295h7.4v35.4h-7.4v-2.5c-1.3,1.8-3.9,2.9-6.8,2.9
			C511.8,330.8,507.3,325.6,507.3,317.6z M526.6,317.6c0-4.1-2.4-6.8-6-6.8c-3.5,0-6,2.7-6,6.8c0,4.1,2.4,6.8,6,6.8
			C524.2,324.5,526.6,321.7,526.6,317.6z"/>
		<path d="M428.6,344.1h8v28.5h15.9v6.9h-23.9V344.1z"/>
		<path d="M477.2,363.1v16.4h-7V376c-0.9,2.4-3.7,3.9-7.2,3.9c-5,0-8.3-3.3-8.3-7.6c0-5,3.7-8,9.3-8h4.3c1.3,0,1.9-0.8,1.9-1.9
			c0-2.1-1.7-3.6-4.6-3.6c-3.1,0-4.7,1.9-4.8,4l-5.9-2.1c1.2-4.1,5.1-7.2,11.1-7.2C472.5,353.6,477.2,357.3,477.2,363.1z M470.2,369
			v-0.4h-5.2c-2.1,0-3.6,1.3-3.6,3.3c0,1.7,1.4,2.8,3.4,2.8C468.3,374.8,470.2,372.3,470.2,369z"/>
		<path d="M488.9,377v2.5h-7.4v-35.4h7.4v12.3c1.4-1.7,3.8-2.8,6.9-2.8c7.4,0,11.9,5.2,11.9,13.2c0,8-4.6,13.2-12,13.2
			C492.8,379.9,490.2,378.8,488.9,377z M500.4,366.7c0-4.1-2.4-6.8-6-6.8c-3.6,0-6,2.7-6,6.8c0,4.1,2.4,6.8,6,6.8
			C498.1,373.6,500.4,370.8,500.4,366.7z"/>
		<path d="M509.5,372.3l6-2.1c0.7,2.3,2.6,4.1,5.3,4.1c2,0,3.3-1,3.3-2.4c0-4-13.5-1.3-13.5-11c0-4,3.5-7.3,9.1-7.3
			c5.2,0,9.5,2.5,10.7,6.2l-6.1,2.1c-0.8-2.1-2.7-3-4.3-3c-1.7,0-2.8,0.7-2.8,1.8c0,4,13.7,0.7,13.7,11c0,4.4-4,8.1-10,8.1
			C514.7,379.9,510.8,376.1,509.5,372.3z"/>
		<path d="M479.7,270.6h-18.3c0.7,3.1,2.8,4.9,6,4.9c2.5,0,4.4-1.2,5-3.3l6.8,2.4c-1.7,4.5-6.1,7.1-12,7.1
			c-8.8,0-13.1-6.8-13.1-13.2s3.8-13.2,12.7-13.2c9.2,0,13.1,6.8,13.1,12.5C479.8,268.8,479.7,270,479.7,270.6z M471.8,265.3
			c-0.3-2.6-1.9-4.5-5.2-4.5c-2.7,0-4.5,1.5-5.2,4.5H471.8z"/>
		<path d="M428.6,245.8h8v28.5h15.9v6.9h-23.9V245.8z"/>
		<path d="M503.9,261.9v10.6c0,6.2,4.2,9.1,9.7,9.1c1.5,0,2.9-0.3,4.2-0.7l-0.5-6.4c-0.9,0.5-2,0.6-2.9,0.6c-1.8,0-3-1.3-3-3.6v-9.7
			h3.1l3.6-6.2h-6.7v-7.4h-7.4v4.2c0,2.5-1,3.2-3.4,3.2h-6.4v-1.6c0-2.2,1.3-3.6,3.3-3.6c0.8,0,1.6,0.2,2.5,0.6l0.5-6
			c-1.2-0.5-2.6-0.7-4-0.7c-5.6,0-9.7,3.4-9.7,9.5v1.8h-3.1l-3.6,6.2h6.7v19.3h7.4v-19.3H503.9z"/>
	</g>
</g>
</svg>
